REM DIRINDEX 1\2\6,1\2\7,1\2\8,1\2\9,1\3\10,1\3\11,1\4\12,1\4\13,1\4\14,1\5\15,1\5\16,1\5\17
REM DIRNAME cjc020,folder01,folder02,folder03,folder04,folder05,folder06,folder07,folder08,folder09,folder10,folder11,folder12,folder13,folder14,folder15,folder16
TITLE ""
FILE "1900_3_049 sec09_0801_0816.mp3" MP3
  TRACK 01 AUDIO
    TITLE "0:"
    INDEX 01 00:00:00
  TRACK 02 AUDIO
    TITLE "15:cjc020_7575"
    INDEX 01 00:00:19
  TRACK 03 AUDIO
    TITLE "0:"
    INDEX 01 00:05:14
  TRACK 04 AUDIO
    TITLE "15:cjc020_7576"
    INDEX 01 00:05:57
  TRACK 05 AUDIO
    TITLE "0:"
    INDEX 01 00:07:21
  TRACK 06 AUDIO
    TITLE "17:cjc020_7577"
    INDEX 01 00:08:21
  TRACK 07 AUDIO
    TITLE "0:"
    INDEX 01 00:09:26
  TRACK 08 AUDIO
    TITLE "16:cjc020_7578"
    INDEX 01 00:09:38
  TRACK 09 AUDIO
    TITLE "0:"
    INDEX 01 00:10:39
  TRACK 10 AUDIO
    TITLE "17:cjc020_7579"
    INDEX 01 00:11:23
  TRACK 11 AUDIO
    TITLE "0:"
    INDEX 01 00:12:36
  TRACK 12 AUDIO
    TITLE "16:cjc020_7580"
    INDEX 01 00:12:42
  TRACK 13 AUDIO
    TITLE "0:"
    INDEX 01 00:13:53
  TRACK 14 AUDIO
    TITLE "17:cjc020_7581"
    INDEX 01 00:14:35
  TRACK 15 AUDIO
    TITLE "0:"
    INDEX 01 00:15:66
  TRACK 16 AUDIO
    TITLE "16:cjc020_7582"
    INDEX 01 00:15:68
  TRACK 17 AUDIO
    TITLE "0:"
    INDEX 01 00:17:08
  TRACK 18 AUDIO
    TITLE "17:cjc020_7583"
    INDEX 01 00:17:69
  TRACK 19 AUDIO
    TITLE "0:"
    INDEX 01 00:18:62
  TRACK 20 AUDIO
    TITLE "16:cjc020_7584"
    INDEX 01 00:18:68
  TRACK 21 AUDIO
    TITLE "0:"
    INDEX 01 00:19:71
  TRACK 22 AUDIO
    TITLE "17:cjc020_7585"
    INDEX 01 00:20:53
  TRACK 23 AUDIO
    TITLE "0:"
    INDEX 01 00:21:64
  TRACK 24 AUDIO
    TITLE "16:cjc020_7586"
    INDEX 01 00:21:66
  TRACK 25 AUDIO
    TITLE "0:"
    INDEX 01 00:22:68
  TRACK 26 AUDIO
    TITLE "17:cjc020_7587"
    INDEX 01 00:23:50
  TRACK 27 AUDIO
    TITLE "0:"
    INDEX 01 00:24:63
  TRACK 28 AUDIO
    TITLE "16:cjc020_7588"
    INDEX 01 00:24:69
  TRACK 29 AUDIO
    TITLE "0:"
    INDEX 01 00:25:74
  TRACK 30 AUDIO
    TITLE "17:cjc020_7589"
    INDEX 01 00:26:58
  TRACK 31 AUDIO
    TITLE "0:"
    INDEX 01 00:28:15
  TRACK 32 AUDIO
    TITLE "16:cjc020_7590"
    INDEX 01 00:28:17
  TRACK 33 AUDIO
    TITLE "0:"
    INDEX 01 00:29:29
  TRACK 34 AUDIO
    TITLE "17:cjc020_7591"
    INDEX 01 00:30:12
  TRACK 35 AUDIO
    TITLE "0:"
    INDEX 01 00:31:37
  TRACK 36 AUDIO
    TITLE "16:cjc020_7592"
    INDEX 01 00:31:45
  TRACK 37 AUDIO
    TITLE "0:"
    INDEX 01 00:32:66
  TRACK 38 AUDIO
    TITLE "17:cjc020_7593"
    INDEX 01 00:33:50
  TRACK 39 AUDIO
    TITLE "0:"
    INDEX 01 00:35:12
  TRACK 40 AUDIO
    TITLE "16:cjc020_7594"
    INDEX 01 00:35:15
  TRACK 41 AUDIO
    TITLE "0:"
    INDEX 01 00:36:27
  TRACK 42 AUDIO
    TITLE "17:cjc020_7595"
    INDEX 01 00:37:10
  TRACK 43 AUDIO
    TITLE "0:"
    INDEX 01 00:38:02
  TRACK 44 AUDIO
    TITLE "16:cjc020_7596"
    INDEX 01 00:38:08
  TRACK 45 AUDIO
    TITLE "0:"
    INDEX 01 00:39:15
  TRACK 46 AUDIO
    TITLE "17:cjc020_7597"
    INDEX 01 00:39:74
  TRACK 47 AUDIO
    TITLE "0:"
    INDEX 01 00:41:14
  TRACK 48 AUDIO
    TITLE "16:cjc020_7598"
    INDEX 01 00:41:22
  TRACK 49 AUDIO
    TITLE "0:"
    INDEX 01 00:42:27
  TRACK 50 AUDIO
    TITLE "17:cjc020_7599"
    INDEX 01 00:43:11
  TRACK 51 AUDIO
    TITLE "0:"
    INDEX 01 00:44:38
  TRACK 52 AUDIO
    TITLE "16:cjc020_7600"
    INDEX 01 00:44:40
  TRACK 53 AUDIO
    TITLE "0:"
    INDEX 01 00:45:45
  TRACK 54 AUDIO
    TITLE "17:cjc020_7601"
    INDEX 01 00:46:27
  TRACK 55 AUDIO
    TITLE "0:"
    INDEX 01 00:49:08
  TRACK 56 AUDIO
    TITLE "16:cjc020_7602"
    INDEX 01 00:49:65
  TRACK 57 AUDIO
    TITLE "0:"
    INDEX 01 00:50:60
  TRACK 58 AUDIO
    TITLE "17:cjc020_7603"
    INDEX 01 00:51:44
  TRACK 59 AUDIO
    TITLE "0:"
    INDEX 01 00:53:02
  TRACK 60 AUDIO
    TITLE "16:cjc020_7604"
    INDEX 01 00:53:11
  TRACK 61 AUDIO
    TITLE "0:"
    INDEX 01 00:54:17
  TRACK 62 AUDIO
    TITLE "17:cjc020_7605"
    INDEX 01 00:55:03
  TRACK 63 AUDIO
    TITLE "0:"
    INDEX 01 00:56:24
  TRACK 64 AUDIO
    TITLE "16:cjc020_7606"
    INDEX 01 00:56:31
  TRACK 65 AUDIO
    TITLE "0:"
    INDEX 01 00:57:52
  TRACK 66 AUDIO
    TITLE "17:cjc020_7607"
    INDEX 01 00:58:36
  TRACK 67 AUDIO
    TITLE "0:"
    INDEX 01 00:59:71
  TRACK 68 AUDIO
    TITLE "16:cjc020_7608"
    INDEX 01 01:00:02
  TRACK 69 AUDIO
    TITLE "0:"
    INDEX 01 01:01:29
